<svg xmlns="http://www.w3.org/2000/svg" width="120" height="120" viewBox="0 0 120 120">
  <g fill="none" fill-rule="evenodd">
    <circle cx="60" cy="60" r="60" fill="#E95420"/>
    <g fill="#FFF" fill-rule="nonzero" transform="translate(16 42)">
      <path d="M65.5769231,21.5769231 C64.7307692,21.5769231 64.3076923,21.1538462 64.3076923,20.3076923 C64.3076923,19.8846154 64.7307692,19.0384615 65.1538462,19.0384615 L81.6538462,13.9615385 L44,2.53846154 L6.34615385,13.9615385 L22.8461538,19.0384615 C23.6923077,19.4615385 24.1153846,19.8846154 23.6923077,20.7307692 C23.2692308,21.5769231 22.8461538,22 22,21.5769231 L1.26923077,15.2307692 C0.423076923,14.8076923 2.88546964e-13,14.3846154 0.423076923,13.5384615 C0.423076923,13.1153846 0.846153846,12.6923077 1.26923077,12.6923077 L43.5769231,0 L44.4230769,0 L86.7307692,12.6923077 C87.5769231,13.1153846 88,13.5384615 87.5769231,14.3846154 C87.5769231,14.8076923 87.1538462,15.2307692 86.7307692,15.2307692 L65.5769231,21.5769231 L65.5769231,21.5769231 Z"/>
      <path d="M43.1538462,34.2692308 C41.8846154,33.8461538 40.1923077,33.4230769 38.5,33 C35.1153846,32.1538462 31.3076923,31.7307692 27.9230769,32.1538462 L22.8461538,32.1538462 C22.4230769,32.1538462 22,32.1538462 22,31.7307692 C21.5769231,31.3076923 21.5769231,31.3076923 21.5769231,30.8846154 L21.5769231,18.1923077 C21.5769231,12.6923077 41.8846154,12.6923077 44.4230769,12.6923077 C46.9615385,12.6923077 67.2692308,12.6923077 67.2692308,18.1923077 L67.2692308,30.8846154 C67.2692308,31.3076923 66.4230769,32.1538462 66,32.1538462 C65.7179487,32.1538462 63.8846154,32.0128205 60.5,31.7307692 C57.1153846,31.7307692 53.3076923,31.7307692 49.9230769,32.5769231 C48.2307692,33 46.9615385,33.4230769 45.2692308,33.8461538 C44.4230769,34.2692308 44.4230769,34.2692308 44,34.2692308 L43.1538462,34.2692308 Z M39.3461538,30.0384615 C41.0384615,30.4615385 42.3076923,30.8846154 44,31.3076923 C45.2692308,30.8846154 46.9615385,30.4615385 48.6538462,30.0384615 C52.4615385,29.1923077 56.2692308,28.7692308 60.0769231,29.1923077 L64.3076923,29.1923077 L64.3076923,18.1923077 C63.4615385,16.9230769 56.6923077,15.2307692 44.4230769,15.2307692 C31.7307692,15.2307692 24.9615385,17.3461538 24.5384615,18.1923077 L24.5384615,29.6153846 C27.9230769,29.3333333 29.7564103,29.1923077 30.0384615,29.1923077 C33,29.1923077 36.3846154,29.6153846 39.3461538,30.0384615 Z"/>
    </g>
  </g>
</svg>
